<svg xmlns="http://www.w3.org/2000/svg" viewBox="0 0 482 474">
  <g stroke="#222" stroke-width="8">
    <path fill="#3EA202" d="M399.543 310.995L473 349 241 469 9 349l73.457-38.005L241 393z"/>
    <path fill="#1976D2" d="M399.55 235L473 273 241 393 9 273l73.45-38 34.79 17.999 123.76 64 123.76-64z"/>
    <path fill="#FF2636" d="M403.417 160.999l69.583 36-108.24 56-123.76 64-123.76-64-108.24-56 69.583-36 38.657 20 108.32 56 15.44 8 15.44-8 108.32-56z"/>
    <path fill="#FFBA00" d="M241 4.999l-232 120 108.24 56 108.32 56 15.44 8 15.44-8 108.32-56 108.24-56z"/>
  </g>
</svg>
